HIERARCHY
ROOT ui
{
	 OFFSET 0 0 0
	 CHANNELS 3 XPosition YPosition Z Position
	 EndSite
	 {
	 OFFSET 0 -1 0
	 }
}
ROOT li
{
	 OFFSET 0 0 0
	 CHANNELS 3 XPosition YPosition Z Position
	 EndSite
	 {
	 OFFSET 0 -1 0
	 }
}
ROOT ul
{
	 OFFSET 0 0 0
	 CHANNELS 3 XPosition YPosition Z Position
	 EndSite
	 {
	 OFFSET 0 -1 0
	 }
}
ROOT ll
{
	 OFFSET 0 0 0
	 CHANNELS 3 XPosition YPosition Z Position
	 EndSite
	 {
	 OFFSET 0 -1 0
	 }
}
ROOT tt
{
	 OFFSET 0 0 0
	 CHANNELS 3 XPosition YPosition Z Position
	 EndSite
	 {
	 OFFSET 0 -1 0
	 }
}
ROOT tb
{
	 OFFSET 0 0 0
	 CHANNELS 3 XPosition YPosition Z Position
	 EndSite
	 {
	 OFFSET 0 -1 0
	 }
}
ROOT td
{
	 OFFSET 0 0 0
	 CHANNELS 3 XPosition YPosition Z Position
	 EndSite
	 {
	 OFFSET 0 -1 0
	 }
}
ROOT v
{
	 OFFSET 0 0 0
	 CHANNELS 3 XPosition YPosition Z Position
	 EndSite
	 {
	 OFFSET 0 -1 0
	 }
}
ROOT bn
{
	 OFFSET 0 0 0
	 CHANNELS 3 XPosition YPosition Z Position
	 EndSite
	 {
	 OFFSET 0 -1 0
	 }
}
MOTION
Frames: 24
Frame Time: 0.002
-0.021844663619995118	-0.0015964380502700806	0		0.555418212890625	-2.51432177734375	0		-0.9155776977539063	0.27158346557617186	0		-0.4487346801757813	-2.9726337890625	0		1.893843994140625	-0.9285596923828126	0		3.273712646484375	-0.3180019226074219	0		4.4744404296875	-0.10067489624023437	0		5.99622998046875	0.4282823181152344	0		-0.31043536376953124	5.86381640625	0		
0.00820928192138672	0.001213718056678772	0		0.5775145874023437	-2.50447216796875	0		-0.9095618896484375	0.26650238037109375	0		-0.44064111328125	-2.96372265625	0		1.887046630859375	-0.8945697631835937	0		3.27289892578125	-0.2870346984863281	0		4.48059716796875	-0.07573645782470703	0		6.00130615234375	0.43623220825195314	0		-0.29536636352539064	5.8746953125	0		
0.008235284805297852	0.0011630940437316894	0		0.5426170654296875	-2.490357177734375	0		-0.9155136108398437	0.27147573852539064	0		-0.44653695678710936	-2.949747314453125	0		1.9061976318359375	-0.868701171875	0		3.281911865234375	-0.29011322021484376	0		4.4747392578125	-0.050740951538085936	0		5.9963720703125	0.44523065185546873	0		-0.26034271240234375	5.87947998046875	0		
0.005238434791564941	-0.0018750269412994385	0		0.5946089477539063	-2.49864892578125	0		-0.844517333984375	0.2670880737304687	0		-0.44449560546875	-2.94781103515625	0		1.883331298828125	-0.8446367797851563	0		3.30403759765625	-0.26725152587890627	0		4.47878369140625	-0.044790176391601565	0		5.9963076171875	0.42820904541015625	0		-0.31042941284179687	5.86365966796875	0		
0.008264514923095703	0.0010567599534988404	0		0.5406599731445313	-2.4934482421875	0		-0.8445067749023437	0.26702874755859374	0		-0.41742410278320313	-2.938993896484375	0		1.9054273681640626	-0.8277822875976563	0		3.27209814453125	-0.2571370544433594	0		4.4818837890625	-0.025832801818847655	0		5.992359375	0.43720944213867186	0		-0.2613740234375	5.88037548828125	0		
0.005259974002838135	-0.0019860310554504395	0		0.571696044921875	-2.491645263671875	0		-0.91547998046875	0.2712958068847656	0		-0.5033557434082031	-2.930654052734375	0		1.8775870361328124	-0.7966957397460938	0		3.296155517578125	-0.24728225708007812	0		4.48994775390625	-0.013896514892578125	0		6.00136083984375	0.43615338134765624	0		-0.2954339599609375	5.874474609375	0		
-0.01871828842163086	0.0010655189752578735	0		0.5487567749023438	-2.48459375	0		-0.9104561157226563	0.27520526123046873	0		-0.42430178833007814	-2.92608447265625	0		1.90570751953125	-0.7738703002929688	0		3.31111865234375	-0.25738446044921875	0		4.48200537109375	-0.0028840789794921874	0		6.01035986328125	0.43510113525390626	0		-0.29348858642578124	5.8714033203125	0		
0.008288005828857421	8.772460222244262E-4	0		0.5698372192382812	-2.4737490234375	0		-0.9204520263671875	0.27517999267578125	0		-0.50812353515625	-2.894762939453125	0		1.9088045654296875	-0.7559296875	0		3.301280517578125	-0.22437078857421874	0		4.49307080078125	0.0100416259765625	0		6.005404296875	0.4441170654296875	0		-0.29452740478515627	5.87334228515625	0		
0.008295171737670899	8.105490207672119E-4	0		0.556884033203125	-2.47075	0		-0.8614205932617187	0.2808310546875	0		-0.4480684814453125	-2.8911123046875	0		1.8969398193359375	-0.7299215698242187	0		3.28324853515625	-0.23332008361816406	0		4.48510888671875	0.017056243896484375	0		6.0013701171875	0.436131103515625	0		-0.2605537719726562	5.879115234375	0		
-0.018695178985595702	8.64018976688385E-4	0		0.5589352416992187	-2.467823974609375	0		-0.8614144287109375	0.280750244140625	0		-0.4759799499511719	-2.881059326171875	0		1.9389661865234376	-0.7281646118164062	0		3.29727880859375	-0.22941844177246093	0		4.4851162109375	0.017033798217773437	0		5.99633740234375	0.4281512756347656	0		-0.3106796875	5.86427197265625	0		
0.005304036140441895	-0.0023225080966949464	0		0.5339971313476563	-2.4637783203125	0		-0.861404541015625	0.2806637573242188	0		-0.4339091796875	-2.876334228515625	0		1.9391124267578126	-0.7012174072265625	0		3.3043408203125	-0.2194867248535156	0		4.48614599609375	0.021005157470703126	0		6.00138232421875	0.43612496948242185	0		-0.2956918029785156	5.874123046875	0		
0.008337288856506348	5.820119976997375E-4	0		0.5380709228515625	-2.45887158203125	0		-0.9313695678710937	0.28489175415039064	0		-0.5287603149414063	-2.855986328125	0		1.9372508544921876	-0.6772655029296875	0		3.29745947265625	-0.1984944610595703	0		4.4762548828125	0.04102371215820313	0		6.00543310546875	0.44410137939453126	0		-0.2957472839355469	5.874037109375	0		
0.008365259170532227	4.939830005168915E-4	0		0.559177001953125	-2.449048828125	0		-0.8623278198242188	0.2884759216308594	0		-0.4626494445800781	-2.84638330078125	0		1.91546630859375	-0.6382278442382813	0		3.2944033203125	-0.21752496337890626	0		4.48124853515625	0.03396949768066406	0		6.005455078125	0.44409286499023437	0		-0.29579718017578127	5.8739453125	0		
0.003425368070602417	0.005421638011932373	0		0.5302525634765625	-2.448004150390625	0		-0.86229443359375	0.28836895751953123	0		-0.5004862976074219	-2.827311767578125	0		1.921544189453125	-0.6313242797851563	0		3.330525146484375	-0.19973936462402345	0		4.485310546875	0.03991450500488281	0		5.99649072265625	0.4451206970214844	0		-0.2968355712890625	5.8748505859375	0		
0.005434659004211426	-0.0026905720233917235	0		0.5483550415039062	-2.443181884765625	0		-0.8722481079101563	0.2892990417480469	0		-0.50633740234375	-2.81339501953125	0		1.9106578369140625	-0.618350830078125	0		3.291510498046875	-0.2136187744140625	0		4.485353515625	0.03987115478515625	0		5.992494140625	0.4371195068359375	0		-0.26284506225585935	5.8805888671875	0		
-0.0215126953125	-0.002680919885635376	0		0.506451416015625	-2.4410966796875	0		-0.9421810302734375	0.293490966796875	0		-0.532190673828125	-2.801397216796875	0		1.9197686767578126	-0.6074773559570312	0		3.278593017578125	-0.2076260986328125	0		4.47039892578125	0.038887008666992184	0		6.00557177734375	0.44403265380859375	0		-0.2969027099609375	5.87462646484375	0		
0.008558028221130371	5.993000045418739E-5	0		0.5405608520507813	-2.437366455078125	0		-0.8671284790039062	0.2930157775878906	0		-0.5299945678710938	-2.779537353515625	0		1.9319022216796875	-0.5926281127929688	0		3.31458984375	-0.22186579895019531	0		4.48341259765625	0.0297650146484375	0		6.005623046875	0.44399365234375	0		-0.2949368591308594	5.87248974609375	0		
-0.01837923049926758	4.6491999179124834E-5	0		0.5057154235839844	-2.424336669921875	0		-0.873011474609375	0.30589578247070315	0		-0.5228583374023438	-2.771711181640625	0		1.9270628662109375	-0.5727145385742187	0		3.30480859375	-0.1879110565185547	0		4.48253564453125	0.043692657470703125	0		6.00971533203125	0.45192230224609375	0		-0.2959498596191406	5.87335498046875	0		
0.03568865966796875	-3.4355300664901735E-4	0		0.5218283081054688	-2.421549560546875	0		-0.87796484375	0.30175955200195315	0		-0.5297003784179688	-2.759834228515625	0		1.916192626953125	-0.5607880249023437	0		3.28475390625	-0.21592604064941406	0		4.47857470703125	0.03761820983886719	0		6.00170654296875	0.43588809204101564	0		-0.2979479064941406	5.875212890625	0		
-0.02124921989440918	-0.0032485239505767823	0		0.48699026489257813	-2.40854736328125	0		-0.8778934326171876	0.30158868408203127	0		-0.5225572509765625	-2.7520322265625	0		1.9633184814453124	-0.5511365356445312	0		3.288858154296875	-0.21006594848632812	0		4.475638671875	0.03552139282226562	0		6.0017763671875	0.43579806518554687	0		-0.3119910583496094	5.864111328125	0		
0.0058315320014953615	-0.0035432651042938234	0		0.52405126953125	-2.41888134765625	0		-0.8778155517578125	0.3014056091308594	0		-0.548393798828125	-2.740095703125	0		1.9294903564453125	-0.532138427734375	0		3.32089208984375	-0.2213485107421875	0		4.4757177734375	0.03539186096191406	0		6.0018525390625	0.43568646240234377	0		-0.3109754638671875	5.8629296875	0		
-0.018068384170532227	-6.234509944915772E-4	0		0.49524859619140627	-2.398934814453125	0		-0.8727139892578125	0.3051883239746094	0		-0.5002344665527344	-2.729501708984375	0		1.9306439208984374	-0.5183130493164062	0		3.29707861328125	-0.19939944458007813	0		4.48079345703125	0.03322041320800781	0		6.01000634765625	0.45151681518554687	0		-0.2968922119140625	5.87367724609375	0		
0.03104114532470703	0.002958730936050415	0		0.5233447265625	-2.40225537109375	0		-0.8686107177734375	0.3079644775390625	0		-0.539037353515625	-2.71053173828125	0		1.92884228515625	-0.4954898986816406	0		3.294087890625	-0.21856138610839843	0		4.48088427734375	0.03305213928222656	0		6.0060595703125	0.44337905883789064	0		-0.29783856201171877	5.87447998046875	0		
-0.017877864837646484	-0.0010345300436019897	0		0.5234569702148437	-2.402463623046875	0		-0.8725275268554687	0.30476605224609377	0		-0.49791043090820314	-2.70792822265625	0		1.931961181640625	-0.49170330810546875	0		3.31520947265625	-0.21384689331054688	0		4.45598193359375	0.032976791381835936	0		6.00615576171875	0.44320263671875	0		-0.31082745361328123	5.8623251953125	0		
